<svg xmlns="http://www.w3.org/2000/svg" viewBox="0 0 512 512"><rect width="512" height="512" fill="#050505"/><circle cx="256" cy="256" r="226" fill="none" stroke="#f5f2ed" stroke-width="14"/><path fill="#f5f2ed" d="M146 104c38 43 75 61 110 61s72-18 110-61c8 57-28 82-74 86-2 22-16 41-36 50-20-9-34-28-36-50-46-4-82-29-74-86Z"/><circle cx="187" cy="232" r="50" fill="#f5f2ed"/><circle cx="325" cy="232" r="50" fill="#f5f2ed"/><circle cx="187" cy="232" r="33" fill="#050505"/><circle cx="325" cy="232" r="33" fill="#050505"/><circle cx="187" cy="232" r="28" fill="#f5f2ed"/><circle cx="325" cy="232" r="28" fill="#f5f2ed"/><path fill="#050505" d="M119 278c39 40 70 69 78 121-20-7-40-23-60-48-17 29-23 65-11 95 8 17 20 31 34 43 28-19 61-25 96-16V303c-51-1-92-9-137-25Zm274 0c-39 40-70 69-78 121 20-7 40-23 60-48 17 29 23 65 11 95-8 17-20 31-34 43-28-19-61-25-96-16V303c51-1 92-9 137-25Z" opacity=".0"/><path fill="#f5f2ed" d="M133 277c35 36 62 63 67 112-27 1-50-20-72-53-15 29-24 70-3 105 9 17 22 31 37 43 27-17 58-23 94-13V309c-47-3-86-13-123-32Zm246 0c-35 36-62 63-67 112 27 1 50-20 72-53 15 29 24 70 3 105-9 17-22 31-37 43-27-17-58-23-94-13V309c47-3 86-13 123-32Z"/><path fill="#050505" d="M212 262c16 13 30 19 44 19s28-6 44-19c-10 23-24 37-44 45-20-8-34-22-44-45Z"/><path fill="#ff5a1f" d="M237 251h38l-19 36Z"/><g stroke="#050505" stroke-width="5" fill="none" stroke-linecap="round"><path d="M168 221l20 21 18-12M187 242l-2-34M304 237l20-29 20 13M324 208l1 34"/></g><g fill="#ff5a1f"><circle cx="168" cy="221" r="8"/><circle cx="188" cy="242" r="9"/><circle cx="206" cy="230" r="8"/><circle cx="185" cy="208" r="8"/><circle cx="304" cy="237" r="8"/><circle cx="324" cy="208" r="8"/><circle cx="344" cy="221" r="8"/><circle cx="325" cy="242" r="9"/><circle cx="365" cy="230" r="6"/></g><g fill="#050505"><circle cx="224" cy="346" r="7"/><circle cx="256" cy="346" r="7"/><circle cx="288" cy="346" r="7"/><circle cx="240" cy="378" r="7"/><circle cx="272" cy="378" r="7"/></g><path d="M167 362l-32 58" stroke="#050505" stroke-width="15"/><path d="M169 366l-13 43-26-18" stroke="#050505" stroke-width="14" fill="none"/><g fill="#050505"><rect x="300" y="404" width="18" height="55"/><rect x="333" y="374" width="18" height="85"/><rect x="366" y="344" width="18" height="115"/></g><g fill="#ff5a1f"><rect x="193" y="468" width="16" height="34" rx="8"/><rect x="222" y="468" width="16" height="34" rx="8"/><rect x="310" y="468" width="16" height="34" rx="8"/><rect x="339" y="468" width="16" height="34" rx="8"/></g></svg>