<svg xmlns="http://www.w3.org/2000/svg"><symbol id="x" viewBox="0 0 24 24"><path fill="currentColor" d="M18.244 2.25h3.308l-7.227 8.26 8.502 11.24h-6.657l-5.214-6.817-5.963 6.817H1.685l7.73-8.835L1.254 2.25H8.08l4.713 6.231zm-1.161 17.52h1.833L7.084 4.126H5.117z"/></symbol><symbol id="instagram" viewBox="0 0 24 24"><rect x="3" y="3" width="18" height="18" rx="5" ry="5" fill="none" stroke="currentColor" stroke-width="2"/><circle cx="12" cy="12" r="4" fill="none" stroke="currentColor" stroke-width="2"/><circle cx="17.5" cy="6.5" r="1.2" fill="currentColor"/></symbol><symbol id="linkedin" viewBox="0 0 24 24"><path fill="currentColor" d="M4.98 3.5C4.98 4.88 3.87 6 2.5 6S0 4.88 0 3.5 1.12 1 2.5 1s2.48 1.12 2.48 2.5zM.5 8h4V23h-4zM8 8h3.8v2.05h.05c.53-1 1.82-2.05 3.75-2.05 4.01 0 4.75 2.64 4.75 6.07V23h-4v-7.89c0-1.88-.03-4.3-2.62-4.3-2.63 0-3.03 2.05-3.03 4.16V23H8z"/></symbol><symbol id="github" viewBox="0 0 24 24"><path fill="currentColor" d="M12 .5A11.5 11.5 0 0 0 .5 12.28c0 5.21 3.29 9.63 7.86 11.19.57.11.78-.25.78-.55v-2.02c-3.2.72-3.87-1.58-3.87-1.58-.52-1.37-1.27-1.74-1.27-1.74-1.04-.73.08-.72.08-.72 1.15.08 1.75 1.22 1.75 1.22 1.02 1.8 2.68 1.28 3.33.98.1-.76.4-1.28.72-1.58-2.55-.3-5.24-1.31-5.24-5.82 0-1.29.45-2.34 1.18-3.16-.12-.3-.51-1.5.11-3.12 0 0 .97-.32 3.16 1.21a10.66 10.66 0 0 1 5.75 0c2.19-1.53 3.15-1.21 3.15-1.21.63 1.62.24 2.82.12 3.12.74.82 1.18 1.87 1.18 3.16 0 4.52-2.69 5.51-5.25 5.81.41.37.77 1.09.77 2.2v3.25c0 .31.21.67.79.55A11.8 11.8 0 0 0 23.5 12.28 11.5 11.5 0 0 0 12 .5z"/></symbol></svg>